<svg xmlns="http://www.w3.org/2000/svg" viewBox="0 0 64 64" width="64" height="64">
  <!-- Background circle -->
  <circle cx="32" cy="32" r="30" fill="#1e293b" stroke="#3b82f6" stroke-width="2"/>
  
  <!-- Sparkle top-left -->
  <g transform="translate(12, 12)">
    <path d="M4 0 L5 3 L8 4 L5 5 L4 8 L3 5 L0 4 L3 3 Z" fill="#60a5fa" opacity="0.9"/>
  </g>
  
  <!-- Sparkle top-right -->
  <g transform="translate(48, 12)">
    <path d="M4 0 L5 3 L8 4 L5 5 L4 8 L3 5 L0 4 L3 3 Z" fill="#60a5fa" opacity="0.9"/>
  </g>
  
  <!-- Sparkle bottom-right -->
  <g transform="translate(50, 48)">
    <path d="M3 0 L4 2.5 L6.5 3 L4 3.5 L3 6 L2 3.5 L-0.5 3 L2 2.5 Z" fill="#60a5fa" opacity="0.8"/>
  </g>
  
  <!-- Main L letter -->
  <path d="M 20 18 L 20 46 L 44 46 L 44 40 L 26 40 L 26 18 Z" fill="#60a5fa"/>
  <path d="M 20 18 L 20 24 L 26 24 L 26 18 Z" fill="#3b82f6"/>
  
  <!-- Small sparkle inside L -->
  <g transform="translate(34, 30)">
    <circle cx="0" cy="0" r="1.5" fill="#fbbf24" opacity="0.9"/>
    <path d="M0 -2 L0.5 -0.5 L2 0 L0.5 0.5 L0 2 L-0.5 0.5 L-2 0 L-0.5 -0.5 Z" fill="#fbbf24" opacity="0.7"/>
  </g>
</svg>

